{"title":"Step Up 3D TS XViD - SDTeam","uid":5765508,"size":423172801,"categoryP":"video","categoryS":"movies","magnet":"?xt=urn:btih:f1ee2aa3edb1fb1547292df0e390d6c0f3867109&amp;dn=Step+Up+3D+TS+XViD+-+SDTeam&amp;tr=udp%3A%2F%2Ftracker.openbittorrent.com%3A80&amp;tr=udp%3A%2F%2Fopen.demonii.com%3A1337&amp;tr=udp%3A%2F%2Ftracker.coppersurfer.tk%3A6969&amp;tr=udp%3A%2F%2Fexodus.desync.com%3A6969","seeders":0,"leechers":0,"uploader":"bg2k9","files":32,"time":1281886963,"description":"GREETZ: UnDeaD - BadGirl2k9 - virusofsaten - foxyb - WICCYWOLF - lizzymwah1\n\nVISIT http://www.seedboxwprld.biz/ for all ur seedbox needs!\nVISITfor all ur torrenting needs!\n\nRELEASE NAME: Step Up 3D TS XViD - SDTeam\nRELEASED BY: UnDeaD &amp; BadGirl2k9\nSIZE: 403 MB\n\nLANGUAGE: English\nIMDb: http://www.imdb.com/title/tt1193631/\n\nPLOT: A tight-knit group of New York City street \ndancers, including Luke (Malambri) and Natalie (Vinson), \nteam up with NYU freshman Moose (Sevani), and find themselves \npitted against the world's best hip hop dancers in a high-stakes \nshowdown that will change their lives forever.\n\nSCREENS: &lt;a href=&quot;\nhttp://i658.photobucket.com/albums/uu309/BadGirl2k9/screens/vlcsnap-2010-08-15-14h16m29s120.png&quot; rel=&quot;nofollow&quot; target=&quot;_NEW&quot;&gt;\nhttp://i658.photobucket.com/albums/uu309/BadGirl2k9/screens/vlcsnap-2010-08-15-14h16m29s120.png&lt;/a&gt; &lt;a href=&quot;\nhttp://i658.photobucket.com/albums/uu309/BadGirl2k9/screens/vlcsnap-2010-08-15-14h16m37s223.png&quot; rel=&quot;nofollow&quot; target=&quot;_NEW&quot;&gt;\nhttp://i658.photobucket.com/albums/uu309/BadGirl2k9/screens/vlcsnap-2010-08-15-14h16m37s223.png&lt;/a&gt; &lt;a href=&quot;\nhttp://i658.photobucket.com/albums/uu309/BadGirl2k9/screens/vlcsnap-2010-08-15-14h16m42s14.png&quot; rel=&quot;nofollow&quot; target=&quot;_NEW&quot;&gt;\nhttp://i658.photobucket.com/albums/uu309/BadGirl2k9/screens/vlcsnap-2010-08-15-14h16m42s14.png&lt;/a&gt;\n\nGeneral\nFormat                           : AVI\nFormat/Info                      : Audio Video Interleave\nFile size                        : 404 MiB\nDuration                         : 1h 38mn\nOverall bit rate                 : 571 Kbps\nWriting application              : MEncoder SVN-r22963\nWriting library                  : MPlayer\n\nVideo\nID                               : 0\nFormat                           : MPEG-4 Visual\nFormat profile                   : Simple@L3\nFormat settings, BVOP            : No\nFormat settings, QPel            : No\nFormat settings, GMC             : No warppoints\nFormat settings, Matrix          : Default (H.263)\nCodec ID                         : XVID\nCodec ID/Hint                    : XviD\nDuration                         : 1h 38mn\nBit rate                         : 496 Kbps\nWidth                            : 512 pixels\nHeight                           : 288 pixels\nDisplay aspect ratio             : 16:9\nFrame rate                       : 20.000 fps\nResolution                       : 8 bits\nColorimetry                      : 4:2:0\nScan type                        : Progressive\nBits/(Pixel*Frame)               : 0.168\nStream size                      : 350 MiB (87%)\nWriting library                  : XviD 1.1.2 (UTC 2006-11-01)\n\nAudio\nID                               : 1\nFormat                           : MPEG Audio\nFormat version                   : Version 1\nFormat profile                   : Layer 3\nCodec ID                         : 55\nCodec ID/Hint                    : MP3\nDuration                         : 1h 38mn\nBit rate mode                    : Constant\nBit rate                         : 64.0 Kbps\nChannel(s)                       : 2 channels\nSampling rate                    : 44.1 KHz\nStream size                      : 45.2 MiB (11%)\nAlignment                        : Aligned on interleaves\nInterleave, duration             : 26 ms (0.52 video frame)\nInterleave, preload duration     : 522 ms\n\n","torrent":{"xt":"urn:btih:f1ee2aa3edb1fb1547292df0e390d6c0f3867109","amp;dn":"Step+Up+3D+TS+XViD+-+SDTeam","amp;tr":["udp%3A%2F%2Ftracker.openbittorrent.com%3A80","udp%3A%2F%2Fopen.demonii.com%3A1337","udp%3A%2F%2Ftracker.coppersurfer.tk%3A6969","udp%3A%2F%2Fexodus.desync.com%3A6969"],"infoHash":"f1ee2aa3edb1fb1547292df0e390d6c0f3867109","infoHashBuffer":{"type":"Buffer","data":[241,238,42,163,237,177,251,21,71,41,45,240,227,144,214,192,243,134,113,9]},"announce":[],"urlList":[]}}